<svg xmlns="http://www.w3.org/2000/svg" width="66.461" height="54.003" viewBox="0 0 66.461 54.003">
  <g id="Logo_1_" transform="translate(-1 -1.497)">
    <path id="white_background" d="M60.656,14.941c.041.586.041,1.172.041,1.763,0,18.017-13.716,38.8-38.8,38.8V55.49A38.6,38.6,0,0,1,1,49.377a27.736,27.736,0,0,0,3.245.2A27.38,27.38,0,0,0,21.18,43.726,13.652,13.652,0,0,1,8.441,34.257a13.591,13.591,0,0,0,6.156-.235A13.636,13.636,0,0,1,3.66,20.657v-.173a13.549,13.549,0,0,0,6.188,1.706A13.652,13.652,0,0,1,5.628,3.985a38.7,38.7,0,0,0,28.1,14.245A13.648,13.648,0,0,1,56.966,5.794a27.361,27.361,0,0,0,8.659-3.31,13.686,13.686,0,0,1-5.994,7.541,27.118,27.118,0,0,0,7.83-2.147A27.7,27.7,0,0,1,60.656,14.941Z" transform="translate(0 0)" fill="#24292f"/>
  </g>
</svg>
